<svg xmlns="http://www.w3.org/2000/svg" xmlns:xlink="http://www.w3.org/1999/xlink" version="1.1" x="0px" y="0px" viewBox="0 0 512 640" enable-background="new 0 0 512 512" xml:space="preserve"><path d="M97.2402344,454.6005859c-7.7666016,0.0004883-15.0107422-4.0439453-19.1005859-10.8994141  c-4.6904297-7.8632812-4.1357422-17.628418,1.4140625-24.878418c11.9267578-15.578125,19.0214844-29.1386719,21.9785156-42.1337891  C48.3496094,341.7592773,18,291.1748047,18,237c0-49.5395508,25.1171875-95.9355469,70.7236328-130.6411133  C133.5175781,72.2724609,192.9248047,53.5,256,53.5s122.4824219,18.7724609,167.2763672,52.8588867  C468.8828125,141.0644531,494,187.4604492,494,237s-25.1171875,95.9355469-70.7236328,130.6411133  C378.4824219,401.7275391,319.0751953,420.5,256,420.5c-15.671875,0-31.3632812-1.1889648-46.7021484-3.5361328  c-28.4052734,18.0102539-63.9482422,30.2412109-108.4970703,37.3535156  C99.6083984,454.5078125,98.4179688,454.6005859,97.2402344,454.6005859z M256,73.5C135.7939453,73.5,38,146.8457031,38,237  c0,49.0087891,29.0839844,95.0556641,79.7949219,126.3344727c3.3466797,2.0639648,5.1728516,5.8979492,4.6669922,9.796875  c-2.4003906,18.5175781-10.9892578,36.8994141-27.0273438,57.8486328c-0.2216797,0.2895508-0.8964844,1.1713867-0.1191406,2.4746094  c0.5371094,0.9003906,1.3212891,1.2749023,2.3330078,1.112793c43.4121094-6.9306641,77.4003906-18.8432617,103.90625-36.418457  c2.1103516-1.3989258,4.6748047-1.9458008,7.1669922-1.5297852C224.2011719,399.1943359,240.1083984,400.5,256,400.5  c120.2060547,0,218-73.3457031,218-163.5S376.2060547,73.5,256,73.5z"/><text x="0" y="527" fill="#000000" font-size="5px" font-weight="bold" font-family="'Helvetica Neue', Helvetica, Arial-Unicode, Arial, Sans-serif">Created by iconfield</text><text x="0" y="532" fill="#000000" font-size="5px" font-weight="bold" font-family="'Helvetica Neue', Helvetica, Arial-Unicode, Arial, Sans-serif">from the Noun Project</text></svg>